<?xml version="1.0" standalone="no"?>
<!DOCTYPE svg PUBLIC "-//W3C//DTD SVG 20010904//EN"
 "http://www.w3.org/TR/2001/REC-SVG-20010904/DTD/svg10.dtd">
<svg version="1.0" xmlns="http://www.w3.org/2000/svg"
 width="500.000000pt" height="500.000000pt" viewBox="0 0 500.000000 500.000000"
 preserveAspectRatio="xMidYMid meet">
<metadata>
Created by potrace 1.14, written by Peter Selinger 2001-2017
</metadata>
<g transform="translate(0.000000,500.000000) scale(0.100000,-0.100000)"
fill="#000000" stroke="none">
<path d="M1337 4504 c-3 -3 -40 -7 -83 -10 -98 -6 -113 -8 -194 -28 -61 -16
-87 -24 -135 -42 -20 -7 -35 -12 -57 -17 -7 -2 -23 -8 -34 -15 -12 -6 -24 -8
-28 -5 -3 3 -6 1 -6 -6 0 -7 -4 -9 -10 -6 -5 3 -10 1 -10 -5 0 -6 -4 -8 -10
-5 -5 3 -10 1 -10 -4 0 -6 -3 -10 -7 -9 -14 4 -93 -32 -93 -42 0 -5 -3 -9 -7
-8 -11 4 -134 -66 -159 -91 -12 -11 -24 -17 -28 -14 -3 3 -8 -2 -12 -11 -3 -9
-12 -16 -20 -16 -7 0 -64 -49 -125 -110 -62 -60 -110 -110 -106 -110 4 0 -11
-24 -33 -52 -22 -29 -40 -58 -40 -64 0 -6 -7 -17 -15 -24 -8 -7 -15 -21 -15
-31 0 -11 -4 -19 -9 -19 -5 0 -11 -8 -14 -17 -3 -10 -14 -41 -25 -70 -11 -28
-17 -54 -14 -57 3 -3 -1 -6 -8 -6 -7 0 -11 -3 -7 -6 3 -3 -1 -23 -8 -44 -10
-28 -14 -104 -15 -277 l0 -238 28 -75 c37 -97 43 -114 43 -120 1 -3 6 -11 12
-19 7 -7 12 -19 13 -25 3 -25 17 -56 26 -56 5 0 7 -4 4 -8 -3 -5 3 -24 13 -43
18 -35 21 -128 6 -194 -3 -16 -7 -36 -7 -42 -1 -7 -5 -13 -10 -13 -4 0 -8 -8
-8 -18 0 -10 -5 -23 -12 -30 -7 -7 -9 -12 -5 -12 4 0 2 -10 -4 -22 -13 -24
-19 -138 -8 -138 4 0 11 -9 14 -20 3 -11 13 -20 21 -20 8 0 14 -4 14 -10 0 -5
17 -9 38 -8 20 0 42 -1 47 -2 6 -1 26 -1 46 0 21 1 40 -4 44 -10 9 -15 13 -81
6 -95 -18 -34 2 -95 31 -95 10 0 18 -4 18 -8 0 -4 9 -8 20 -9 11 -1 20 1 20 5
0 4 14 8 30 9 17 1 30 -3 30 -9 0 -6 -3 -9 -6 -5 -8 7 -67 -61 -70 -80 -7 -44
35 -79 100 -85 28 -3 80 -43 81 -63 1 -8 9 -63 19 -125 7 -38 19 -70 27 -70 5
0 9 -6 9 -14 0 -7 21 -23 48 -34 39 -17 63 -20 137 -17 58 2 101 9 120 19 17
9 36 16 43 16 7 0 35 16 62 35 28 19 50 32 50 29 0 -3 9 4 20 17 10 13 19 21
20 17 0 -4 11 -3 25 2 17 6 25 6 25 -1 0 -6 4 -7 10 -4 12 7 70 -22 91 -46 9
-10 19 -16 23 -12 3 3 6 0 6 -8 0 -8 18 -34 40 -59 22 -24 40 -51 40 -59 0 -8
3 -12 6 -8 8 8 83 -107 86 -130 0 -5 5 -19 10 -33 15 -37 21 -78 22 -143 0
-31 4 -57 9 -57 4 0 5 -6 1 -12 -5 -7 -9 -29 -11 -48 -1 -19 -7 -56 -13 -81
-6 -26 -12 -53 -14 -62 -1 -8 -6 -21 -12 -28 -6 -8 -9 -24 -8 -36 0 -12 -2
-20 -6 -18 -6 4 -18 -24 -20 -43 0 -1 -13 -29 -30 -62 -17 -33 -30 -62 -30
-65 1 -3 -6 -13 -15 -21 -8 -9 -13 -20 -10 -25 4 -5 2 -9 -3 -9 -5 0 -14 -12
-21 -27 -7 -16 -20 -39 -29 -53 -9 -14 -17 -27 -17 -30 -2 -14 -49 -96 -59
-102 -6 -4 -7 -8 -3 -8 5 0 -2 -19 -15 -42 -14 -24 -37 -74 -53 -113 -15 -38
-31 -79 -36 -90 -4 -11 -11 -30 -14 -42 l-6 -23 1700 0 c1236 0 1702 3 1707
11 3 6 0 15 -7 20 -8 5 -10 9 -5 9 5 0 2 8 -6 18 -8 9 -22 34 -32 55 -9 20
-21 37 -26 37 -6 0 -9 3 -8 8 2 7 -17 40 -53 94 -11 15 -19 32 -19 38 0 5 -3
10 -8 10 -4 0 -12 8 -17 19 -36 68 -59 107 -65 111 -12 8 -130 256 -130 273 0
9 -4 18 -9 21 -4 3 -12 25 -16 48 -4 24 -10 50 -12 58 -2 8 -4 23 -4 33 0 9
-3 17 -7 17 -4 0 -8 19 -9 43 -4 112 -3 194 2 217 3 14 9 41 12 60 3 19 11 38
17 42 8 5 7 8 -2 8 -9 0 -10 5 -3 19 13 23 33 100 32 124 0 9 4 17 8 17 4 0
13 22 21 50 7 27 15 48 17 46 2 -2 15 7 29 21 22 22 31 24 85 20 33 -3 63 -7
66 -10 3 -3 16 -2 29 3 13 5 24 6 24 1 0 -4 30 -2 68 6 37 8 73 14 80 15 6 1
12 5 12 10 0 4 3 7 8 6 4 -1 22 6 40 15 17 10 32 15 32 13 0 -9 58 49 74 75
18 29 27 109 13 109 -5 0 -7 6 -4 14 3 8 3 17 -1 21 -4 4 -7 10 -8 13 0 4 -4
14 -7 22 -14 32 -25 102 -19 123 5 22 52 85 52 71 0 -4 8 1 19 12 12 14 18 35
18 61 -1 38 -4 43 -41 62 -30 15 -42 17 -48 8 -6 -9 -8 -9 -8 1 0 6 -7 12 -15
12 -13 0 -13 3 -4 13 7 7 25 12 41 11 15 -1 28 2 28 7 0 5 7 9 15 9 26 0 29
62 5 103 -12 20 -26 37 -30 37 -12 0 -22 30 -25 71 -2 29 2 39 19 47 11 5 23
9 26 9 5 -1 41 27 71 55 9 9 19 14 21 12 3 -2 4 6 3 19 -1 12 2 25 6 28 20 12
-27 95 -80 144 -81 74 -193 185 -186 185 4 0 -2 12 -13 28 -23 33 -32 55 -43
107 -5 22 -12 51 -15 65 -4 14 -8 36 -9 50 -2 14 -4 25 -5 25 -1 0 -3 14 -6
30 -5 36 -12 69 -14 73 -2 1 -3 5 -4 10 -1 4 -5 12 -9 19 -4 6 -1 14 5 16 10
4 10 6 1 6 -7 1 -13 7 -13 14 0 17 -51 121 -62 125 -4 2 -8 9 -8 16 0 7 -10
25 -22 39 -13 14 -34 44 -48 68 -14 23 -35 52 -47 65 -12 12 -19 25 -16 28 3
3 -2 8 -11 12 -9 3 -16 12 -16 19 0 7 -3 15 -7 17 -5 2 -38 35 -75 75 -38 39
-68 69 -68 67 0 -3 -12 7 -27 21 -15 14 -31 25 -35 25 -3 0 -13 6 -20 13 -13
12 -108 71 -118 72 -3 1 -25 10 -50 22 -43 20 -157 61 -190 68 -23 4 -101 17
-135 22 -49 6 -279 10 -290 4 -5 -2 -30 -6 -55 -8 -50 -4 -95 -9 -95 -12 0 -2
-11 -4 -25 -7 -14 -2 -36 -7 -50 -11 -14 -3 -27 -7 -30 -7 -3 -1 -11 -5 -17
-9 -7 -5 -13 -6 -13 -2 0 3 -16 -1 -35 -9 -20 -9 -39 -16 -43 -17 -66 -15
-288 -120 -322 -151 -11 -10 -20 -16 -20 -13 0 7 -64 -39 -102 -73 -24 -22
-28 -23 -42 -9 -9 9 -16 18 -16 21 0 11 -64 106 -71 106 -5 0 -9 4 -9 10 0 11
-22 39 -92 114 -26 28 -48 54 -48 59 0 4 -4 7 -10 7 -5 0 -25 16 -45 37 -19
20 -35 32 -35 28 0 -4 -8 1 -17 12 -23 25 -143 106 -143 96 0 -4 -4 -3 -8 4
-8 13 -150 83 -169 83 -7 0 -13 5 -13 11 0 6 -6 9 -14 6 -7 -3 -19 0 -25 6 -6
6 -11 8 -11 4 0 -4 -9 -3 -19 2 -10 6 -34 13 -52 15 -19 3 -45 8 -59 11 -14 3
-52 8 -85 11 -33 3 -65 7 -72 9 -6 2 -13 1 -16 -1z"/>
</g>
</svg>
